<svg viewBox="0 0 947.03 219.92" xmlns="http://www.w3.org/2000/svg"><path d="M669.28 24.17A57.9 57.9 0 0 0 611.44 82v1.9h115.68V82a57.9 57.9 0 0 0-57.84-57.83m0 167.8a82.09 82.09 0 0 1-82-82v-28a82 82 0 1 1 164 0v26.07H611.44v1.9a57.84 57.84 0 0 0 97.37 42.21l17.09 17.11a81.44 81.44 0 0 1-56.62 22.69M865.04 24.17A57.89 57.89 0 0 0 807.21 82v28a57.84 57.84 0 0 0 115.67 0V82a57.9 57.9 0 0 0-57.84-57.83m0 167.8a82.09 82.09 0 0 1-82-82v-28a82 82 0 1 1 164 0v28a82.09 82.09 0 0 1-82 82M277.76 24.17A57.89 57.89 0 0 0 219.93 82v1.9h115.65V82a57.89 57.89 0 0 0-57.83-57.83m0 167.8a82.1 82.1 0 0 1-82-82v-28a82 82 0 1 1 164 0v26.07H219.93v1.9a57.83 57.83 0 0 0 97.36 42.21l17.09 17.11a81.44 81.44 0 0 1-56.62 22.69M26.07 219.93a26 26 0 0 1-11.31-2.57 25.84 25.84 0 0 1-4.29-2.62 26 26 0 0 1-5.29-5.28 24.38 24.38 0 0 1-1.4-2.08 25 25 0 0 1-1.2-2.22 25.76 25.76 0 0 1-2.57-11.3 26.1 26.1 0 0 1 24.16-26v14.77a13.14 13.14 0 0 0 13.13 13.13h100.63a26 26 0 0 1 17.53 6.77c.61.56 1.2 1.15 1.77 1.76a26 26 0 0 1 6.69 15.63zM82 24.17A57.84 57.84 0 1 0 139.83 82 57.89 57.89 0 0 0 82 24.17M82 164a82 82 0 1 1 82-82 82.1 82.1 0 0 1-82 82M531.36 191.97v-110a57.84 57.84 0 0 0-115.67 0v110h-24.11v-110a82 82 0 1 1 164 0v110z"/></svg>